<svg width="30px" height="30px" viewBox="0 0 32 32" id="Layer_1" data-name="Layer 1"
  xmlns="http://www.w3.org/2000/svg" fill="#000000">
  <g>
    <defs>
      <style> .cls-1 { fill: #fff; } .cls-2 { fill: none; } </style>
    </defs>
    <circle fill="#fff" cx="16" cy="16" r="2"></circle>
    <path class="cls-1"
      d="M30.8638,15.4961l-7-12A1,1,0,0,0,23,3H9a1,1,0,0,0-.8638.4961l-7,12a1,1,0,0,0,0,1.0078l7,12A1,1,0,0,0,9,29H23a1,1,0,0,0,.8638-.4961l7-12a1,1,0,0,0,0-1.0078ZM22.4258,27H9.5742L3.1577,16,9.5742,5H22.4258l6.4165,11Z"
      transform="translate(0 0)"></path>
    <rect id="_Transparent_Rectangle_" data-name="Transparent Rectangle" class="cls-2" width="32"
      height="32" transform="translate(32 32) rotate(-180)"></rect>
  </g>
</svg>